<svg width="100" height="100" viewBox="0 0 100 100" fill="none" xmlns="http://www.w3.org/2000/svg">
<path fill-rule="evenodd" clip-rule="evenodd" d="M44.2857 17.1429C29.2951 17.1429 17.1429 29.2951 17.1429 44.2857V55.7143C17.1429 70.7049 29.2951 82.8571 44.2857 82.8571H55.7143C70.7049 82.8571 82.8571 70.7049 82.8571 55.7143V44.2857C82.8571 29.2951 70.7049 17.1429 55.7143 17.1429H44.2857ZM52.2555 72.1458C51.0737 72.0836 50.0652 72.9913 50.003 74.1731C49.9408 75.3549 50.8484 76.3634 52.0302 76.4256C59.3409 76.8104 65.6739 74.4994 70.0867 70.0867C74.4994 65.6739 76.8104 59.3409 76.4256 52.0302C76.3634 50.8484 75.3549 49.9408 74.1731 50.003C72.9913 50.0652 72.0836 51.0737 72.1458 52.2555C72.4753 58.5162 70.5006 63.6118 67.0562 67.0562C63.6118 70.5006 58.5162 72.4753 52.2555 72.1458Z" fill="black"/>
<path fill-rule="evenodd" clip-rule="evenodd" d="M0 42.8571C0 19.1878 19.1878 0 42.8571 0H57.1429C80.8122 0 100 19.1878 100 42.8571V57.1429C100 80.8122 80.8122 100 57.1429 100H42.8571C19.1878 100 0 80.8122 0 57.1429V42.8571ZM11.4286 44.2857C11.4286 26.1392 26.1392 11.4286 44.2857 11.4286H55.7143C73.8608 11.4286 88.5714 26.1392 88.5714 44.2857V55.7143C88.5714 73.8608 73.8608 88.5714 55.7143 88.5714H44.2857C26.1392 88.5714 11.4286 73.8608 11.4286 55.7143V44.2857Z" fill="black"/>
</svg>
